<svg width="29" height="38" viewBox="0 0 29 38" fill="none" xmlns="http://www.w3.org/2000/svg">
<path d="M26.1604 0.209544C27.5101 -0.462772 29.0856 0.569764 28.9964 2.06811L27.5996 25.5149C27.5104 27.0132 25.8232 27.8536 24.5628 27.0276L4.83865 14.1015C3.57819 13.2755 3.68977 11.4026 5.03948 10.7302L26.1604 0.209544Z" fill="#C4C4C4"/>
<path d="M2.80779 25.5608C1.44602 26.2086 -0.11043 25.1478 0.00617675 23.6513L0.454483 17.8979C0.57109 16.4014 2.2733 15.5917 3.51846 16.4403L8.30562 19.703C9.55078 20.5517 9.40502 22.4223 8.04325 23.0701L2.80779 25.5608Z" fill="#C4C4C4"/>
<path d="M12.7798 37.7984C11.424 38.4584 9.858 37.4115 9.96109 35.914L10.7146 24.9674C10.8177 23.47 12.5125 22.645 13.7653 23.4825L22.9232 29.6047C24.176 30.4421 24.0471 32.314 22.6913 32.9739L12.7798 37.7984Z" fill="#C4C4C4"/>
</svg>
